<svg id="Capa_1" data-name="Capa 1" xmlns="http://www.w3.org/2000/svg" viewBox="0 0 102.59 103.06">
    <defs>
        <style>
            path {
                fill: #FFF;
            }

            circle {

                fill: #000;
            }

            @media (prefers-color-scheme: dark) {
                path {
                    fill: #000;
                }
                circle {

                    fill: #FFF;
                }
            }
        </style>
    </defs>
    <circle cx="51.3" cy="51.53" r="50.7" />
    <path
        d="M76.49,51.36a25.66,25.66,0,0,1,7.57-1.64,8.83,8.83,0,0,1,5.83,1.9,6,6,0,0,1,2.3,4.84,8.32,8.32,0,0,1-.94,3.78,9.75,9.75,0,0,1-2.58,3.24,11,11,0,0,1-3.79,1.9,16,16,0,0,1-4.75.74q-7.84,0-13.47-7.67a39,39,0,0,1-4-7.06,36.85,36.85,0,0,1-2.53-7.59l-.77-3.86-.47-2.33c0-.15-.07-.38-.12-.67a11.54,11.54,0,0,0,1.56.12L62,37a5.35,5.35,0,0,1,1.51.21,3.44,3.44,0,0,1,1.82,1.22,3.21,3.21,0,0,1,.69,2,4,4,0,0,1-.56,2,11.93,11.93,0,0,1-2,2.31A3.65,3.65,0,0,0,62,47.26a4.88,4.88,0,0,0,1.07,2.93,2.91,2.91,0,0,0,2.18,1.43A1.83,1.83,0,0,0,66.68,51a2.44,2.44,0,0,0,.55-1.64,2.73,2.73,0,0,0,0-.4C66.45,50,65.71,50.54,65,50.54c-1.08,0-1.61-.56-1.61-1.68,0-.67.56-1.53,1.68-2.56a5.8,5.8,0,0,0,2.08-4.37,6.78,6.78,0,0,0-6.68-6.66l-1.58,0-1.46,0c-.35,0-.64,0-.85,0l.1.6a72,72,0,0,0,2.66,10.44,42.56,42.56,0,0,0,3.93,8.21q8,13.21,17.6,13.21a14.52,14.52,0,0,0,5.37-1A12.16,12.16,0,0,0,90.56,64a8.92,8.92,0,0,0,2.57-6.55,8.19,8.19,0,0,0-3-6.5,10.48,10.48,0,0,0-7.59-2.61,33.39,33.39,0,0,0-13.06,3.81,5.19,5.19,0,0,0-2.21,2.31A3.24,3.24,0,0,0,67,56.77S68,54.16,76.49,51.36Z" />
    <path
        d="M56,40.86l.29.75c-1.61.75-3.45,1.52-5.5,2.31l-.57.22c.09-.51.18-1.14.26-1.87s.14-1.11.2-1.56a11.18,11.18,0,0,0,.13-1.54c0-.89-.42-1.34-1.27-1.34a9.43,9.43,0,0,0-4.88,1.82q-3.78,2.45-3.78,5.66a1.46,1.46,0,0,0,1,1.52,15.08,15.08,0,0,0,4.27.37h.29c0-.47.06-.79.06-1A9.37,9.37,0,0,0,46,43c1.46.35,2.2,1.65,2.2,3.87v.38l3.45-.07a11.53,11.53,0,0,1,3.39.35,4.64,4.64,0,0,1,3.27,4.8,14.68,14.68,0,0,1-3.65,9.36A13.22,13.22,0,0,1,44,67a7.8,7.8,0,0,1-7-3.72A21.33,21.33,0,0,1,25.49,66.7,17.43,17.43,0,0,1,17,64.59q-7.5-4.12-7.5-14.12a15.67,15.67,0,0,1,3.37-10.38,10.68,10.68,0,0,1,8.59-4,12.73,12.73,0,0,1,8.76,3.27,13.85,13.85,0,0,1,3.29,4.41,55.26,55.26,0,0,1,2.86,8.33l1.1,4a38.67,38.67,0,0,0,1.63,4.85,14.26,14.26,0,0,0,4.36-4.7,17.57,17.57,0,0,0,2.7-6.29l-1,0a15.53,15.53,0,0,1-5.18-.6,2.14,2.14,0,0,1-1.51-2.1q0-2.43,2.66-5.52a15.69,15.69,0,0,1,5-3.91,28.37,28.37,0,0,1,7.5-2.21l.74-.13-.06.35c-.15.66-.27,1.25-.35,1.76l-.35,2.07a10.07,10.07,0,0,0-.16,1.28c0,.42.18.63.53.63a2.19,2.19,0,0,0,.77-.15ZM36.66,62.48A29.33,29.33,0,0,1,35.1,58.3l-1.76-6.46q-2.09-7.73-5-11.21A9.26,9.26,0,0,0,21,37.15a8.86,8.86,0,0,0-7.18,3.08q-2.58,3.08-2.58,8.53a17,17,0,0,0,1,5.74,16.51,16.51,0,0,0,2.83,5,15.86,15.86,0,0,0,12.12,5.68A19,19,0,0,0,36.66,62.48ZM47.79,49.84a18.82,18.82,0,0,1-3.1,6.44,22.43,22.43,0,0,1-5.28,5.43A8.1,8.1,0,0,0,41.79,65a5.59,5.59,0,0,0,3.38.94,10,10,0,0,0,7.51-3.5,11.4,11.4,0,0,0,3.27-8c0-1.7-.47-2.88-1.42-3.53s-2.64-1-5.09-1h-1.1Z" />
</svg>