<svg id="Capa_1" data-name="Capa 1" xmlns="http://www.w3.org/2000/svg" viewBox="0 0 161.68 80.7"><defs><style>.cls-1{fill:#1d1d1b;}</style></defs><path class="cls-1" d="M4,79.89a4.91,4.91,0,0,1-1.75-.31,4.9,4.9,0,0,1-1.51-1L1.34,78a4.78,4.78,0,0,0,1.27.85,3.54,3.54,0,0,0,1.47.28,2,2,0,0,0,1.29-.38,1.2,1.2,0,0,0,.48-1v0a1.26,1.26,0,0,0-.09-.49,1,1,0,0,0-.32-.41,2.29,2.29,0,0,0-.63-.33,7.88,7.88,0,0,0-1-.28,8.56,8.56,0,0,1-1.19-.35,3,3,0,0,1-.84-.46,1.86,1.86,0,0,1-.49-.64,2.1,2.1,0,0,1-.16-.86v0A2.13,2.13,0,0,1,1.28,73a2.27,2.27,0,0,1,.55-.69,2.76,2.76,0,0,1,.83-.45,3.21,3.21,0,0,1,1-.17,4.16,4.16,0,0,1,1.53.25,4.68,4.68,0,0,1,1.27.73l-.52.7a3.65,3.65,0,0,0-1.12-.66,3.37,3.37,0,0,0-1.18-.21,2,2,0,0,0-1.24.37,1.14,1.14,0,0,0-.46.92v0a1.36,1.36,0,0,0,.09.51,1,1,0,0,0,.33.41,2.25,2.25,0,0,0,.66.34,8.72,8.72,0,0,0,1.09.29,4.68,4.68,0,0,1,2,.82,1.78,1.78,0,0,1,.64,1.44v0a2.05,2.05,0,0,1-.21.93,1.94,1.94,0,0,1-.56.71,2.48,2.48,0,0,1-.85.46A3.52,3.52,0,0,1,4,79.89Z"/><path class="cls-1" d="M13.42,71.8h.9v8h-.9Z"/><path class="cls-1" d="M21.41,71.8h.9v7.14H26.8v.84H21.41Z"/><path class="cls-1" d="M33.22,71.8H39v.81H34.12v2.74h4.35v.81H34.12V79H39v.81H33.22Z"/><path class="cls-1" d="M45.61,71.8h.84l5,6.39V71.8h.87v8h-.72l-5.15-6.55v6.55h-.87Z"/><path class="cls-1" d="M62.32,71.74h.84l3.63,8h-1l-.94-2.11H60.55l-.95,2.11h-.92Zm2.22,5.12-1.81-4.07L60.9,76.86Z"/><path class="cls-1" d="M83,79.89a2.62,2.62,0,0,1-1.5-.4,3.46,3.46,0,0,1-1-1l.65-.56a3.43,3.43,0,0,0,.78.85,1.83,1.83,0,0,0,1,.29,1.46,1.46,0,0,0,1.12-.49,2.07,2.07,0,0,0,.44-1.43V71.8h.9v5.33a3.53,3.53,0,0,1-.19,1.23,2.51,2.51,0,0,1-.53.87A2.42,2.42,0,0,1,83,79.89Z"/><path class="cls-1" d="M96.05,79.91a4.07,4.07,0,0,1-1.66-.33,3.92,3.92,0,0,1-1.28-.89,4,4,0,0,1-.83-1.31A4.37,4.37,0,0,1,92,75.81v0a4.23,4.23,0,0,1,.3-1.58,3.8,3.8,0,0,1,.83-1.31,4,4,0,0,1,2.95-1.24,4.07,4.07,0,0,1,1.66.33,3.9,3.9,0,0,1,1.28.9,4,4,0,0,1,.83,1.31,4.32,4.32,0,0,1,.29,1.56,0,0,0,0,1,0,0,4.21,4.21,0,0,1-.3,1.57A4,4,0,0,1,99,78.67a4.12,4.12,0,0,1-1.29.91A4.07,4.07,0,0,1,96.05,79.91Zm0-.83a3.05,3.05,0,0,0,1.26-.26,3,3,0,0,0,1-.7,3.38,3.38,0,0,0,.64-1,3.42,3.42,0,0,0,.23-1.28v0A3.44,3.44,0,0,0,99,74.5a3.29,3.29,0,0,0-.66-1,3.2,3.2,0,0,0-1-.71,3.12,3.12,0,0,0-1.26-.26,3.05,3.05,0,0,0-1.26.26,2.92,2.92,0,0,0-1,.7,3.24,3.24,0,0,0-.64,1,3.33,3.33,0,0,0-.23,1.27v0a3.42,3.42,0,0,0,.23,1.28,3,3,0,0,0,.65,1,3.25,3.25,0,0,0,1,.71A3.05,3.05,0,0,0,96.07,79.08Z"/><path class="cls-1" d="M109.28,76.62,106,71.8h1.1l2.68,4,2.71-4h1l-3.31,4.81v3.17h-.9Z"/><path class="cls-1" d="M119.7,71.8h5.76v.81H120.6v2.74H125v.81H120.6V79h4.92v.81H119.7Z"/><path class="cls-1" d="M132.09,71.8h3.43a3.79,3.79,0,0,1,1.31.21,2.4,2.4,0,0,1,.95.59,1.94,1.94,0,0,1,.46.69,2.3,2.3,0,0,1,.16.88v0a2.36,2.36,0,0,1-.16.9,2.12,2.12,0,0,1-.45.68,2.65,2.65,0,0,1-.69.48,3.85,3.85,0,0,1-.87.27l2.45,3.26h-1.1l-2.32-3.11H133v3.11h-.9Zm3.35,4.07a2.66,2.66,0,0,0,.82-.12,1.93,1.93,0,0,0,.66-.32,1.56,1.56,0,0,0,.43-.52,1.52,1.52,0,0,0,.15-.69v0a1.36,1.36,0,0,0-.54-1.15,2.4,2.4,0,0,0-1.51-.42H133v3.24Z"/><path class="cls-1" d="M145.16,71.8h.9v8h-.9Zm1.17-2.36.91.42L146,71.08h-.7Z"/><path class="cls-1" d="M156.1,71.74h.84l3.64,8h-1l-.94-2.11h-4.34l-.94,2.11h-.93Zm2.22,5.12-1.81-4.07-1.83,4.07Z"/><path class="cls-1" d="M122.71,27.61c5-1.63,9.16-2.77,12.77-2.77a14.93,14.93,0,0,1,9.85,3.22,10.14,10.14,0,0,1,3.88,8.17,14.15,14.15,0,0,1-1.58,6.39,16.64,16.64,0,0,1-4.35,5.46,18.64,18.64,0,0,1-6.41,3.21,27,27,0,0,1-8,1.25q-13.25,0-22.74-12.95A65.55,65.55,0,0,1,99.4,27.67a62.64,62.64,0,0,1-4.27-12.82l-1.3-6.52L93,4.39c-.05-.25-.12-.62-.2-1.13a18.63,18.63,0,0,0,2.64.21l2.69-.06a8.93,8.93,0,0,1,2.55.35,5.76,5.76,0,0,1,3.07,2.05A5.5,5.5,0,0,1,105,9.23a6.57,6.57,0,0,1-.94,3.42,19.77,19.77,0,0,1-3.38,3.91q-2.37,2.27-2.37,4.14a8.15,8.15,0,0,0,1.81,4.94q1.82,2.41,3.66,2.42A3,3,0,0,0,106.14,27a4,4,0,0,0,.92-2.76,5.32,5.32,0,0,0,0-.67c-1.26,1.78-2.5,2.67-3.74,2.67-1.82,0-2.72-.95-2.72-2.84,0-1.14.94-2.58,2.84-4.32a9.8,9.8,0,0,0,3.5-7.39,10.8,10.8,0,0,0-3.34-7.91A10.89,10.89,0,0,0,95.62.45L93,.51,90.49.57c-.59,0-1.08,0-1.44,0l.17,1a121.18,121.18,0,0,0,4.49,17.62A73,73,0,0,0,100.34,33q13.59,22.31,29.73,22.31a24.56,24.56,0,0,0,9.06-1.74A20.82,20.82,0,0,0,146.46,49a15.12,15.12,0,0,0,4.35-11.07,13.91,13.91,0,0,0-5.14-11,17.76,17.76,0,0,0-12.82-4.4c-3.35.18-14,1.7-22,6.44a8.71,8.71,0,0,0-3.73,3.89,5.47,5.47,0,0,0-.42,3.92S108.28,32.34,122.71,27.61Z"/><path class="cls-1" d="M88.13,9.89l.48,1.27q-4.08,1.89-9.28,3.9l-1,.37c.15-.87.3-1.92.45-3.16.12-1,.23-1.87.34-2.64A21,21,0,0,0,79.37,7c0-1.51-.72-2.27-2.16-2.27q-3.48,0-8.24,3.08Q62.58,12,62.58,17.4A2.48,2.48,0,0,0,64.27,20c1.13.4,3.54.61,7.23.61H72c.07-.79.11-1.34.11-1.64a15.84,15.84,0,0,0-.89-5.53c2.47.6,3.71,2.77,3.71,6.54v.63l5.83-.11a19.3,19.3,0,0,1,5.72.59Q92,23,92,29.17,92,37.4,85.83,45q-7.35,9-17.94,9a13.16,13.16,0,0,1-11.8-6.28,36,36,0,0,1-19.5,5.79A29.39,29.39,0,0,1,22.19,50Q9.52,43,9.52,26.12q0-10.7,5.68-17.52A18,18,0,0,1,29.72,1.76,21.44,21.44,0,0,1,44.5,7.3a23.23,23.23,0,0,1,5.57,7.44A94.1,94.1,0,0,1,54.9,28.79l1.85,6.69a67.67,67.67,0,0,0,2.75,8.2q3.68-2.19,7.37-7.94a29.54,29.54,0,0,0,4.55-10.62l-1.71,0q-6.19,0-8.74-1a3.59,3.59,0,0,1-2.54-3.54q0-4.08,4.49-9.32a26.17,26.17,0,0,1,8.5-6.59A47.5,47.5,0,0,1,84.08,1L85.35.72l-.12.6c-.24,1.11-.44,2.1-.59,3l-.59,3.49a17.21,17.21,0,0,0-.26,2.15c0,.72.29,1.08.89,1.08a3.67,3.67,0,0,0,1.3-.26ZM55.46,46.39a48.11,48.11,0,0,1-2.64-7l-3-10.92q-3.52-13-8.51-18.91a15.56,15.56,0,0,0-12.4-5.89q-7.76,0-12.12,5.2t-4.36,14.4a28.65,28.65,0,0,0,1.76,9.7A28.07,28.07,0,0,0,19,41.42a26.42,26.42,0,0,0,9.17,7A26.21,26.21,0,0,0,39.45,51,32.24,32.24,0,0,0,55.46,46.39ZM74.24,25A31.65,31.65,0,0,1,69,35.92,38.28,38.28,0,0,1,60.1,45.1a13.8,13.8,0,0,0,4,5.47,9.56,9.56,0,0,0,5.72,1.58q7.15,0,12.67-5.9A19.29,19.29,0,0,0,88,32.69c0-2.87-.8-4.85-2.4-6S81.16,25.08,77,25.08H75.17Z"/><rect class="cls-1" x="0.78" y="63.35" width="159.8" height="0.71"/></svg>