<svg id="Capa_1" data-name="Capa 1" xmlns="http://www.w3.org/2000/svg" viewBox="0 0 114.96 115.34"><defs><style>.cls-1{fill:#1d1d1b;}.cls-2{fill:#fff;}</style></defs><circle class="cls-1" cx="57.48" cy="57.67" r="56.86"/><path class="cls-2" d="M30.85,80.63a4.13,4.13,0,0,1-1.56-.28,4.44,4.44,0,0,1-1.36-.86l.5-.59a4.44,4.44,0,0,0,1.14.76,3.36,3.36,0,0,0,1.31.25A1.8,1.8,0,0,0,32,79.56a1,1,0,0,0,.43-.87v0a1,1,0,0,0-.08-.44.86.86,0,0,0-.28-.36,2.15,2.15,0,0,0-.57-.3,6.66,6.66,0,0,0-.93-.25A8.09,8.09,0,0,1,29.55,77a2.85,2.85,0,0,1-.76-.42,1.62,1.62,0,0,1-.44-.57,2,2,0,0,1-.14-.77v0a1.84,1.84,0,0,1,.17-.77,2,2,0,0,1,.49-.62,2.46,2.46,0,0,1,.75-.41,2.81,2.81,0,0,1,.94-.15,4.06,4.06,0,0,1,1.37.22,4.43,4.43,0,0,1,1.14.66l-.47.62a3.79,3.79,0,0,0-1-.59A3.09,3.09,0,0,0,30.54,74a1.76,1.76,0,0,0-1.12.33,1,1,0,0,0-.4.82v0a1.14,1.14,0,0,0,.08.46.87.87,0,0,0,.29.36,2,2,0,0,0,.59.31,7.7,7.7,0,0,0,1,.26,4.22,4.22,0,0,1,1.76.73,1.6,1.6,0,0,1,.57,1.29v0a1.87,1.87,0,0,1-.18.83,2,2,0,0,1-.5.64,2.26,2.26,0,0,1-.77.41A3.41,3.41,0,0,1,30.85,80.63Z"/><path class="cls-2" d="M39.25,73.39h.8v7.14h-.8Z"/><path class="cls-2" d="M46.4,73.39h.81v6.39h4v.75H46.4Z"/><path class="cls-2" d="M57,73.39h5.16v.72H57.78v2.46h3.89v.72H57.78V79.8h4.4v.73H57Z"/><path class="cls-2" d="M68.06,73.39h.75l4.5,5.72V73.39h.79v7.14h-.65l-4.61-5.86v5.86h-.78Z"/><path class="cls-2" d="M83,73.34h.75L87,80.53h-.87l-.84-1.89H81.43l-.84,1.89h-.83Zm2,4.58-1.63-3.65-1.63,3.65Z"/><path class="cls-2" d="M29.73,91.62a1.9,1.9,0,0,1-1.1-.3,2.28,2.28,0,0,1-.71-.74l.47-.42a2.24,2.24,0,0,0,.58.63,1.34,1.34,0,0,0,.77.21,1.07,1.07,0,0,0,.83-.35,1.51,1.51,0,0,0,.33-1.06v-4h.66v3.94a2.76,2.76,0,0,1-.14.91,1.92,1.92,0,0,1-.39.64A1.78,1.78,0,0,1,29.73,91.62Z"/><path class="cls-2" d="M39.39,91.64a3.07,3.07,0,0,1-1.23-.25,2.75,2.75,0,0,1-.94-.66,2.8,2.8,0,0,1-.61-1,3,3,0,0,1-.22-1.15v0a3.13,3.13,0,0,1,.83-2.13,3.13,3.13,0,0,1,1-.67,3,3,0,0,1,3.4.66,3.08,3.08,0,0,1,.61,1,3.26,3.26,0,0,1,.21,1.16s0,0,0,0a3.07,3.07,0,0,1-.22,1.16,3,3,0,0,1-.61,1,2.94,2.94,0,0,1-2.18.92Zm0-.62a2.26,2.26,0,0,0,.94-.19,2.08,2.08,0,0,0,.72-.52,2.46,2.46,0,0,0,.48-.76,2.66,2.66,0,0,0,.17-.94v0a2.71,2.71,0,0,0-.17-1,2.47,2.47,0,0,0-.49-.77,2.23,2.23,0,0,0-1.66-.71,2.18,2.18,0,0,0-.93.19,2,2,0,0,0-.73.51,2.48,2.48,0,0,0-.65,1.71v0a2.71,2.71,0,0,0,.17,1,2.47,2.47,0,0,0,.49.77,2.42,2.42,0,0,0,.73.52A2.24,2.24,0,0,0,39.4,91Z"/><path class="cls-2" d="M49.16,89.2l-2.45-3.56h.81l2,3,2-3h.77l-2.45,3.55v2.34h-.66Z"/><path class="cls-2" d="M56.85,85.64h4.26v.6H57.52v2h3.21v.6H57.52v2.07h3.63v.59h-4.3Z"/><path class="cls-2" d="M66,85.64h2.54a2.94,2.94,0,0,1,1,.16,1.89,1.89,0,0,1,.7.43,1.51,1.51,0,0,1,.34.52,1.66,1.66,0,0,1,.11.64v0a1.69,1.69,0,0,1-.11.66,1.57,1.57,0,0,1-.34.51,1.71,1.71,0,0,1-.51.35,2.45,2.45,0,0,1-.63.2l1.81,2.4h-.82l-1.71-2.29H66.67v2.29H66Zm2.48,3a2,2,0,0,0,.61-.09,1.35,1.35,0,0,0,.48-.24,1.26,1.26,0,0,0,.32-.37,1.19,1.19,0,0,0,.11-.51v0a1,1,0,0,0-.4-.86,1.79,1.79,0,0,0-1.11-.3H66.67v2.39Z"/><path class="cls-2" d="M75.66,85.64h.66v5.89h-.66Zm.86-1.74.68.31-1,.9h-.52Z"/><path class="cls-2" d="M83.74,85.6h.62L87,91.53h-.71L85.64,90H82.43l-.7,1.55h-.68Zm1.64,3.78-1.34-3-1.35,3Z"/><path class="cls-2" d="M81.22,43.76a24.36,24.36,0,0,1,7.13-1.55,8.33,8.33,0,0,1,5.5,1.8A5.65,5.65,0,0,1,96,48.57a7.9,7.9,0,0,1-.88,3.56,9.32,9.32,0,0,1-2.43,3A10.36,10.36,0,0,1,89.13,57a14.89,14.89,0,0,1-4.48.7q-7.4,0-12.69-7.23a36.46,36.46,0,0,1-3.75-6.65,35.17,35.17,0,0,1-2.38-7.15L65.1,33l-.43-2.2c0-.14-.07-.35-.12-.63a10,10,0,0,0,1.47.11l1.51,0a5.12,5.12,0,0,1,1.42.19,3.25,3.25,0,0,1,1.71,1.15,3,3,0,0,1,.65,1.91,3.71,3.71,0,0,1-.52,1.91,11.07,11.07,0,0,1-1.89,2.18,3.45,3.45,0,0,0-1.32,2.31,4.53,4.53,0,0,0,1,2.76,2.71,2.71,0,0,0,2,1.35A1.7,1.7,0,0,0,72,43.42a2.25,2.25,0,0,0,.52-1.55c0-.07,0-.2,0-.37-.7,1-1.4,1.49-2.09,1.49a1.37,1.37,0,0,1-1.52-1.58c0-.64.53-1.44,1.59-2.41a5.47,5.47,0,0,0,2-4.13,6.35,6.35,0,0,0-6.28-6.27l-1.49,0-1.38,0-.8,0,.09.57A68.32,68.32,0,0,0,65,39a40.7,40.7,0,0,0,3.7,7.75q7.59,12.45,16.59,12.45a13.91,13.91,0,0,0,5.06-1,11.69,11.69,0,0,0,4.09-2.61,8.43,8.43,0,0,0,2.42-6.17A7.72,7.72,0,0,0,94,43.36a9.9,9.9,0,0,0-7.15-2.46,31.59,31.59,0,0,0-12.3,3.6,4.87,4.87,0,0,0-2.09,2.17,3.07,3.07,0,0,0-.23,2.19S73.17,46.4,81.22,43.76Z"/><path class="cls-2" d="M61.92,33.87l.27.7C60.67,35.28,59,36,57,36.75l-.54.21c.09-.49.17-1.07.25-1.76s.13-1.05.19-1.48A11.18,11.18,0,0,0,57,32.27Q57,31,55.83,31a8.84,8.84,0,0,0-4.6,1.72q-3.55,2.3-3.56,5.33a1.38,1.38,0,0,0,.94,1.44,15,15,0,0,0,4,.34h.27c0-.44.06-.75.06-.91a8.79,8.79,0,0,0-.49-3.09c1.38.33,2.07,1.55,2.07,3.65v.35l3.25-.06a10.66,10.66,0,0,1,3.19.33,4.36,4.36,0,0,1,3.09,4.52,13.84,13.84,0,0,1-3.44,8.82,12.48,12.48,0,0,1-10,5A7.37,7.37,0,0,1,44,55a20.12,20.12,0,0,1-10.88,3.23,16.41,16.41,0,0,1-8-2q-7.07-3.9-7.06-13.3a14.74,14.74,0,0,1,3.17-9.78,10,10,0,0,1,8.1-3.82,12,12,0,0,1,8.25,3.09,13.08,13.08,0,0,1,3.11,4.15,53.78,53.78,0,0,1,2.69,7.85l1,3.73A35.82,35.82,0,0,0,46,52.73a13.58,13.58,0,0,0,4.11-4.44,16.43,16.43,0,0,0,2.54-5.92l-1,0a14.5,14.5,0,0,1-4.88-.57,2,2,0,0,1-1.42-2c0-1.52.83-3.26,2.5-5.2A14.77,14.77,0,0,1,52.6,31a26.3,26.3,0,0,1,7.07-2.08l.7-.13-.06.33c-.14.62-.25,1.18-.33,1.66l-.33,1.95a10.08,10.08,0,0,0-.15,1.2c0,.4.17.6.5.6a2.13,2.13,0,0,0,.72-.14ZM43.69,54.24a27.49,27.49,0,0,1-1.47-3.94l-1.66-6.09q-2-7.27-4.74-10.56a8.72,8.72,0,0,0-6.93-3.28,8.36,8.36,0,0,0-6.76,2.9q-2.44,2.9-2.44,8a15.86,15.86,0,0,0,1,5.41,15.38,15.38,0,0,0,2.66,4.74,14.94,14.94,0,0,0,11.42,5.35A18,18,0,0,0,43.69,54.24ZM54.18,42.32a18,18,0,0,1-2.93,6.08,21.08,21.08,0,0,1-5,5.11,7.65,7.65,0,0,0,2.24,3.06,5.31,5.31,0,0,0,3.19.88,9.48,9.48,0,0,0,7.08-3.29,10.77,10.77,0,0,0,3.07-7.57,3.75,3.75,0,0,0-1.33-3.32c-.89-.62-2.49-.92-4.8-.92h-1Z"/><rect class="cls-2" x="16.51" y="65.38" width="81.93" height="0.42"/></svg>