<svg xmlns="http://www.w3.org/2000/svg" id="Capa_1" data-name="Capa 1" viewBox="0 0 129.73 100.51">
    <path
        d="M24.91 83.26a6.5 6.5 0 0 1-2.41-.43 6.7 6.7 0 0 1-2.07-1.32l.76-.91a6.6 6.6 0 0 0 1.74 1.17 4.9 4.9 0 0 0 2 .38 2.8 2.8 0 0 0 1.78-.52 1.64 1.64 0 0 0 .66-1.34 1.8 1.8 0 0 0-.12-.68 1.44 1.44 0 0 0-.44-.56 3.2 3.2 0 0 0-.87-.45 10 10 0 0 0-1.42-.39 11 11 0 0 1-1.64-.47 4.2 4.2 0 0 1-1.16-.64 2.46 2.46 0 0 1-.67-.88 2.9 2.9 0 0 1-.2-1.22 2.7 2.7 0 0 1 .27-1.19 2.6 2.6 0 0 1 .75-.94 3.5 3.5 0 0 1 1.13-.65 4.4 4.4 0 0 1 1.45-.22 5.75 5.75 0 0 1 3.85 1.35l-.72 1a5.2 5.2 0 0 0-1.58-.96 4.7 4.7 0 0 0-1.62-.28 2.64 2.64 0 0 0-1.71.5 1.55 1.55 0 0 0-.62 1.26 1.9 1.9 0 0 0 .12.69 1.5 1.5 0 0 0 .45.57 3.8 3.8 0 0 0 .91.47 11 11 0 0 0 1.49.39 6.6 6.6 0 0 1 2.7 1.13 2.43 2.43 0 0 1 .87 2 2.8 2.8 0 0 1-.28 1.27 2.9 2.9 0 0 1-.76 1 3.6 3.6 0 0 1-1.18.63 5.2 5.2 0 0 1-1.46.24m12.88-11.11H39v11h-1.21Zm10.97 0H50V82h6.16v1.14h-7.4Zm16.24 0h7.9v1.11h-6.68V77h6v1.12h-6V82H73v1.11h-8Zm17 0h1.15l6.91 8.78v-8.78h1.2v11h-1l-7.08-9v9H82Zm23-.08h1.16l5 11h-1.33l-1.28-2.9h-6l-1.3 2.9H100Zm3 7-2.49-5.59L103 79.1Zm-85.27 21.06a2.93 2.93 0 0 1-1.7-.46 3.7 3.7 0 0 1-1.09-1.14l.73-.64a3.3 3.3 0 0 0 .89 1 2 2 0 0 0 1.18.33 1.67 1.67 0 0 0 1.26-.58 2.37 2.37 0 0 0 .5-1.63V91h1v6a4 4 0 0 1-.22 1.4 2.6 2.6 0 0 1-.6 1 2.7 2.7 0 0 1-1.95.73m14.81.02a4.6 4.6 0 0 1-1.88-.37 4.53 4.53 0 0 1-2.39-2.5 4.9 4.9 0 0 1-.33-1.78 4.86 4.86 0 0 1 1.28-3.28 4.8 4.8 0 0 1 1.46-1 4.7 4.7 0 0 1 1.89-.38 4.6 4.6 0 0 1 1.88.38 4.5 4.5 0 0 1 1.45 1 4.6 4.6 0 0 1 .94 1.49 5 5 0 0 1 .33 1.77 4.9 4.9 0 0 1-.34 1.78 4.7 4.7 0 0 1-.94 1.49 4.54 4.54 0 0 1-3.35 1.4m0-.94a3.5 3.5 0 0 0 1.46-.29 3.3 3.3 0 0 0 1.12-.79 3.9 3.9 0 0 0 1-2.63 4 4 0 0 0-.28-1.5 3.7 3.7 0 0 0-.74-1.18A3.8 3.8 0 0 0 39 92a3.56 3.56 0 0 0-2.86 0 3.3 3.3 0 0 0-1.11.79 3.7 3.7 0 0 0-.76 1.21 3.9 3.9 0 0 0-.27 1.45 3.9 3.9 0 0 0 .27 1.45 3.4 3.4 0 0 0 .73 1.21 3.5 3.5 0 0 0 1.13.8 3.4 3.4 0 0 0 1.44.3Zm14.99-2.79L48.78 91H50l3 4.52L56.13 91h1.18l-3.76 5.45V100h-1ZM64.34 91h6.54v.91h-5.52V95h4.93v.91h-4.93v3.18h5.58v.91h-6.6Zm14.04 0h3.89a4.3 4.3 0 0 1 1.49.24 3 3 0 0 1 1.08.66 2.5 2.5 0 0 1 .52.79 2.9 2.9 0 0 1 .18 1 2.8 2.8 0 0 1-.18 1 2.5 2.5 0 0 1-.52.78 2.6 2.6 0 0 1-.78.54 4 4 0 0 1-1 .3l2.78 3.7h-1.23L82 96.48h-2.6V100h-1Zm3.81 4.61a3.1 3.1 0 0 0 .93-.13 2.5 2.5 0 0 0 .74-.37 1.8 1.8 0 0 0 .48-.58 1.66 1.66 0 0 0 .18-.78 1.59 1.59 0 0 0-.61-1.31 2.78 2.78 0 0 0-1.71-.47h-2.8v3.67Zm11-4.61h1v9h-1Zm1.33-2.68 1 .48-1.42 1.34h-.8Zm11.07 2.57h1l4.12 9.11h-1.1l-1.06-2.39h-4.92l-1.11 2.39h-1Zm2.52 5.8-2-4.61-2.11 4.61Zm-4.9-71.46c4.53-1.48 8.33-2.51 11.61-2.51a13.54 13.54 0 0 1 9 2.92 9.2 9.2 0 0 1 3.53 7.42 13 13 0 0 1-1.43 5.81 15.2 15.2 0 0 1-4 5 16.8 16.8 0 0 1-5.82 2.92 24.4 24.4 0 0 1-7.3 1.13q-12 0-20.66-11.76A59.8 59.8 0 0 1 82 25.28a57 57 0 0 1-3.88-11.65L77 7.71l-.71-3.58c-.06-.23-.12-.57-.19-1a16.5 16.5 0 0 0 2.4.19l2.45-.06a8.4 8.4 0 0 1 2.31.32A5.23 5.23 0 0 1 86 5.42a4.92 4.92 0 0 1 1.06 3.11 6 6 0 0 1-.86 3.1 18 18 0 0 1-3.07 3.56C81.71 16.56 81 17.81 81 19a7.4 7.4 0 0 0 1.64 4.49c1.1 1.47 2.21 2.2 3.33 2.2a2.79 2.79 0 0 0 2.19-1 3.7 3.7 0 0 0 .84-2.53v-.6C87.81 23.17 86.67 24 85.55 24c-1.65 0-2.48-.86-2.48-2.58 0-1 .87-2.34 2.59-3.92a8.91 8.91 0 0 0 3.18-6.72 9.78 9.78 0 0 0-3-7.18 9.87 9.87 0 0 0-7.2-3h-2.46l-2.24.05h-1.32l.16.92a112.5 112.5 0 0 0 4.08 16 67 67 0 0 0 6 12.61q12.35 20.27 27 20.27a22.4 22.4 0 0 0 8.24-1.58 19 19 0 0 0 6.66-4.24 13.75 13.75 0 0 0 4-10.06 12.63 12.63 0 0 0-4.67-10 16.18 16.18 0 0 0-11.65-4c-3.05.17-12.7 1.55-20 5.85A8 8 0 0 0 89 30a4.9 4.9 0 0 0-.37 3.56s1.47-4.03 14.58-8.33M71.79 9.13l.44 1.15c-2.47 1.14-5.29 2.32-8.44 3.54l-.87.34c.13-.79.27-1.75.4-2.87.11-.9.21-1.7.31-2.4a18.5 18.5 0 0 0 .2-2.36c0-1.37-.66-2.06-2-2.06-2.11 0-4.61.94-7.49 2.8Q48.58 11 48.58 16a2.24 2.24 0 0 0 1.53 2.34 24 24 0 0 0 6.57.56h.43c.07-.72.1-1.22.1-1.49a14.2 14.2 0 0 0-.81-5c2.25.53 3.38 2.52 3.38 5.93v.58l5.3-.1a17.3 17.3 0 0 1 5.19.54q5 1.79 5 7.35 0 7.5-5.6 14.38Q63 49.21 53.4 49.22a12 12 0 0 1-10.73-5.71A32.7 32.7 0 0 1 25 48.78a26.8 26.8 0 0 1-13.1-3.24Q.36 39.2.36 23.88.36 14.16 5.52 8a16.39 16.39 0 0 1 13.19-6.26 19.5 19.5 0 0 1 13.43 5 20.9 20.9 0 0 1 5.06 6.76 84 84 0 0 1 4.39 12.78l1.69 6.07a59 59 0 0 0 2.5 7.46c2.22-1.33 4.46-3.74 6.69-7.23A26.9 26.9 0 0 0 56.61 23h-1.56q-5.62 0-7.94-.93a3.27 3.27 0 0 1-2.31-3.22q0-3.72 4.08-8.47a23.9 23.9 0 0 1 7.73-6A43.3 43.3 0 0 1 68.11 1l1.15-.21-.1.54q-.34 1.53-.54 2.7l-.54 3.18a17 17 0 0 0-.24 2c0 .66.27 1 .81 1a3.5 3.5 0 0 0 1.19-.23ZM42.1 42.3a44 44 0 0 1-2.4-6.41L37 26q-3.21-11.88-7.73-17.22A14.15 14.15 0 0 0 18 3.43q-7 0-11 4.72T3 21.24a26.1 26.1 0 0 0 1.6 8.81A25.4 25.4 0 0 0 9 37.78a24.1 24.1 0 0 0 8.34 6.41 23.85 23.85 0 0 0 10.25 2.29A29.26 29.26 0 0 0 42.1 42.3m17.07-19.4a28.8 28.8 0 0 1-4.76 9.88 34.5 34.5 0 0 1-8.1 8.34 12.65 12.65 0 0 0 3.65 5 8.74 8.74 0 0 0 5.2 1.43q6.51 0 11.52-5.37a17.5 17.5 0 0 0 5-12.31q0-3.92-2.18-5.42t-7.81-1.5H60ZM3.77 59.87H129.5v.64H3.77z" />
</svg>