<svg xmlns="http://www.w3.org/2000/svg" id="Capa_1" data-name="Capa 1" viewBox="0 0 161.68 80.7"><path d="M4 79.89a4.9 4.9 0 0 1-1.75-.31 4.9 4.9 0 0 1-1.51-1l.6-.58a4.8 4.8 0 0 0 1.27.85 3.5 3.5 0 0 0 1.47.28 2 2 0 0 0 1.29-.38 1.2 1.2 0 0 0 .48-1 1.3 1.3 0 0 0-.09-.49 1 1 0 0 0-.32-.41 2.3 2.3 0 0 0-.63-.33 8 8 0 0 0-1-.28 9 9 0 0 1-1.19-.35 3 3 0 0 1-.84-.46 1.9 1.9 0 0 1-.49-.64 2.1 2.1 0 0 1-.16-.86 2.1 2.1 0 0 1 .15-.93 2.3 2.3 0 0 1 .55-.69 2.8 2.8 0 0 1 .83-.45 3.2 3.2 0 0 1 1-.17 4.2 4.2 0 0 1 1.53.25 4.7 4.7 0 0 1 1.27.73l-.52.7a3.7 3.7 0 0 0-1.12-.66 3.4 3.4 0 0 0-1.18-.21 2 2 0 0 0-1.24.37 1.14 1.14 0 0 0-.46.92 1.4 1.4 0 0 0 .09.51 1 1 0 0 0 .33.41 2.3 2.3 0 0 0 .66.34 9 9 0 0 0 1.09.29 4.7 4.7 0 0 1 2 .82 1.78 1.78 0 0 1 .64 1.44 2.05 2.05 0 0 1-.21.93 1.94 1.94 0 0 1-.56.71 2.5 2.5 0 0 1-.85.46 3.5 3.5 0 0 1-1.13.19m9.42-8.09h.9v8h-.9Zm7.99 0h.9v7.14h4.49v.84h-5.39Zm11.81 0H39v.81h-4.88v2.74h4.35v.81h-4.35V79H39v.81h-5.78Zm12.39 0h.84l5 6.39V71.8h.87v8h-.72l-5.15-6.55v6.55h-.87Zm16.71-.06h.84l3.63 8h-1l-.94-2.11h-4.3l-.95 2.11h-.92Zm2.22 5.12-1.81-4.07-1.83 4.07ZM83 79.89a2.6 2.6 0 0 1-1.5-.4 3.5 3.5 0 0 1-1-1l.65-.56a3.4 3.4 0 0 0 .78.85 1.83 1.83 0 0 0 1 .29 1.46 1.46 0 0 0 1.12-.49 2.07 2.07 0 0 0 .44-1.43V71.8h.9v5.33a3.5 3.5 0 0 1-.19 1.23 2.5 2.5 0 0 1-.53.87 2.42 2.42 0 0 1-1.67.66m13.05.02a4.1 4.1 0 0 1-1.66-.33 3.9 3.9 0 0 1-1.28-.89 4 4 0 0 1-.83-1.31 4.4 4.4 0 0 1-.28-1.57 4.2 4.2 0 0 1 .3-1.58 3.8 3.8 0 0 1 .83-1.31 4 4 0 0 1 2.95-1.24 4.1 4.1 0 0 1 1.66.33 3.9 3.9 0 0 1 1.28.9 4 4 0 0 1 .83 1.31 4.3 4.3 0 0 1 .29 1.56 4.2 4.2 0 0 1-.3 1.57 4 4 0 0 1-.84 1.32 4.1 4.1 0 0 1-1.29.91 4.1 4.1 0 0 1-1.66.33m0-.83a3.05 3.05 0 0 0 1.26-.26 3 3 0 0 0 1-.7 3.4 3.4 0 0 0 .64-1 3.4 3.4 0 0 0 .23-1.28A3.4 3.4 0 0 0 99 74.5a3.3 3.3 0 0 0-.66-1 3.2 3.2 0 0 0-1-.71 3.1 3.1 0 0 0-1.26-.26 3.05 3.05 0 0 0-1.26.26 2.9 2.9 0 0 0-1 .7 3.2 3.2 0 0 0-.64 1 3.3 3.3 0 0 0-.23 1.27 3.4 3.4 0 0 0 .23 1.28 3 3 0 0 0 .65 1 3.3 3.3 0 0 0 1 .71 3.05 3.05 0 0 0 1.24.33Zm13.23-2.46L106 71.8h1.1l2.68 4 2.71-4h1l-3.31 4.81v3.17h-.9Zm10.42-4.82h5.76v.81h-4.86v2.74h4.4v.81h-4.4V79h4.92v.81h-5.82Zm12.39 0h3.43a3.8 3.8 0 0 1 1.31.21 2.4 2.4 0 0 1 .95.59 1.9 1.9 0 0 1 .46.69 2.3 2.3 0 0 1 .16.88 2.4 2.4 0 0 1-.16.9 2.1 2.1 0 0 1-.45.68 2.7 2.7 0 0 1-.69.48 4 4 0 0 1-.87.27l2.45 3.26h-1.1l-2.32-3.11H133v3.11h-.9Zm3.35 4.07a2.7 2.7 0 0 0 .82-.12 1.9 1.9 0 0 0 .66-.32 1.6 1.6 0 0 0 .43-.52 1.5 1.5 0 0 0 .15-.69 1.36 1.36 0 0 0-.54-1.15 2.4 2.4 0 0 0-1.51-.42H133v3.24Zm9.72-4.07h.9v8h-.9Zm1.17-2.36.91.42-1.24 1.22h-.7Zm9.77 2.3h.84l3.64 8h-1l-.94-2.11h-4.34l-.94 2.11h-.93Zm2.22 5.12-1.81-4.07-1.83 4.07Zm-35.61-49.25c5-1.63 9.16-2.77 12.77-2.77a14.93 14.93 0 0 1 9.85 3.22 10.14 10.14 0 0 1 3.88 8.17 14.15 14.15 0 0 1-1.58 6.39 16.6 16.6 0 0 1-4.35 5.46 18.6 18.6 0 0 1-6.41 3.21 27 27 0 0 1-8 1.25q-13.25 0-22.74-12.95a65.6 65.6 0 0 1-6.73-11.92 62.6 62.6 0 0 1-4.27-12.82l-1.3-6.52L93 4.39c-.05-.25-.12-.62-.2-1.13a19 19 0 0 0 2.64.21l2.69-.06a9 9 0 0 1 2.55.35 5.76 5.76 0 0 1 3.07 2.05A5.5 5.5 0 0 1 105 9.23a6.57 6.57 0 0 1-.94 3.42 19.8 19.8 0 0 1-3.38 3.91q-2.37 2.27-2.37 4.14a8.15 8.15 0 0 0 1.81 4.94q1.82 2.41 3.66 2.42a3 3 0 0 0 2.36-1.06 4 4 0 0 0 .92-2.76 5 5 0 0 0 0-.67c-1.26 1.78-2.5 2.67-3.74 2.67-1.82 0-2.72-.95-2.72-2.84 0-1.14.94-2.58 2.84-4.32a9.8 9.8 0 0 0 3.5-7.39 10.8 10.8 0 0 0-3.34-7.91A10.9 10.9 0 0 0 95.62.45L93 .51l-2.51.06h-1.44l.17 1a121 121 0 0 0 4.49 17.62A73 73 0 0 0 100.34 33q13.59 22.31 29.73 22.31a24.6 24.6 0 0 0 9.06-1.74 20.8 20.8 0 0 0 7.33-4.57 15.12 15.12 0 0 0 4.35-11.07 13.91 13.91 0 0 0-5.14-11 17.76 17.76 0 0 0-12.82-4.4c-3.35.18-14 1.7-22 6.44a8.7 8.7 0 0 0-3.73 3.89 5.47 5.47 0 0 0-.42 3.92s1.58-4.44 16.01-9.17M88.13 9.89l.48 1.27q-4.08 1.89-9.28 3.9l-1 .37c.15-.87.3-1.92.45-3.16.12-1 .23-1.87.34-2.64A21 21 0 0 0 79.37 7c0-1.51-.72-2.27-2.16-2.27q-3.48 0-8.24 3.08-6.39 4.19-6.39 9.59a2.48 2.48 0 0 0 1.69 2.6c1.13.4 3.54.61 7.23.61h.5c.07-.79.11-1.34.11-1.64a15.8 15.8 0 0 0-.89-5.53c2.47.6 3.71 2.77 3.71 6.54v.63l5.83-.11a19.3 19.3 0 0 1 5.72.59Q92 23 92 29.17 92 37.4 85.83 45q-7.35 9-17.94 9a13.16 13.16 0 0 1-11.8-6.28 36 36 0 0 1-19.5 5.79A29.4 29.4 0 0 1 22.19 50Q9.52 43 9.52 26.12q0-10.7 5.68-17.52a18 18 0 0 1 14.52-6.84A21.44 21.44 0 0 1 44.5 7.3a23.2 23.2 0 0 1 5.57 7.44 94 94 0 0 1 4.83 14.05l1.85 6.69a68 68 0 0 0 2.75 8.2q3.68-2.19 7.37-7.94a29.5 29.5 0 0 0 4.55-10.62h-1.71q-6.19 0-8.74-1a3.59 3.59 0 0 1-2.54-3.54q0-4.08 4.49-9.32a26.2 26.2 0 0 1 8.5-6.59A47.5 47.5 0 0 1 84.08 1l1.27-.28-.12.6c-.24 1.11-.44 2.1-.59 3l-.59 3.49a17 17 0 0 0-.26 2.15c0 .72.29 1.08.89 1.08a3.7 3.7 0 0 0 1.3-.26Zm-32.67 36.5a48 48 0 0 1-2.64-7l-3-10.92q-3.52-13-8.51-18.91a15.56 15.56 0 0 0-12.4-5.89q-7.76 0-12.12 5.2t-4.36 14.4a28.7 28.7 0 0 0 1.76 9.7A28.1 28.1 0 0 0 19 41.42a26.4 26.4 0 0 0 9.17 7A26.2 26.2 0 0 0 39.45 51a32.24 32.24 0 0 0 16.01-4.61M74.24 25A31.7 31.7 0 0 1 69 35.92a38.3 38.3 0 0 1-8.9 9.18 13.8 13.8 0 0 0 4 5.47 9.56 9.56 0 0 0 5.72 1.58q7.15 0 12.67-5.9A19.3 19.3 0 0 0 88 32.69c0-2.87-.8-4.85-2.4-6s-4.44-1.61-8.6-1.61h-1.83ZM.78 63.35h159.8v.71H.78z"/></svg>