<svg xmlns="http://www.w3.org/2000/svg" id="Capa_1" data-name="Capa 1" viewBox="0 0 102.59 103.06"><style>path{fill:#000}@media (prefers-color-scheme:dark){path{fill:#fff}}</style><path d="M51.3 1.82A49.71 49.71 0 1 1 1.59 51.53 49.76 49.76 0 0 1 51.3 1.82m0-1A50.71 50.71 0 1 0 102 51.53 50.71 50.71 0 0 0 51.3.82"/><path d="M76.49 51.36a25.7 25.7 0 0 1 7.57-1.64 8.83 8.83 0 0 1 5.83 1.9 6 6 0 0 1 2.3 4.84 8.3 8.3 0 0 1-.94 3.78 9.75 9.75 0 0 1-2.58 3.24 11 11 0 0 1-3.79 1.9 16 16 0 0 1-4.75.74q-7.84 0-13.47-7.67a39 39 0 0 1-4-7.06 37 37 0 0 1-2.53-7.59l-.77-3.86-.47-2.33c0-.15-.07-.38-.12-.67a11.5 11.5 0 0 0 1.56.12L62 37a5.4 5.4 0 0 1 1.51.21 3.44 3.44 0 0 1 1.82 1.22 3.2 3.2 0 0 1 .69 2 4 4 0 0 1-.56 2 12 12 0 0 1-2 2.31A3.65 3.65 0 0 0 62 47.26a4.88 4.88 0 0 0 1.07 2.93 2.91 2.91 0 0 0 2.18 1.43 1.83 1.83 0 0 0 1.43-.62 2.44 2.44 0 0 0 .55-1.64 3 3 0 0 0 0-.4c-.78 1.04-1.52 1.58-2.23 1.58-1.08 0-1.61-.56-1.61-1.68 0-.67.56-1.53 1.68-2.56a5.8 5.8 0 0 0 2.08-4.37 6.78 6.78 0 0 0-6.68-6.66h-3.89l.1.6a72 72 0 0 0 2.66 10.44 42.6 42.6 0 0 0 3.93 8.21q8 13.21 17.6 13.21a14.5 14.5 0 0 0 5.37-1A12.2 12.2 0 0 0 90.56 64a8.92 8.92 0 0 0 2.57-6.55 8.19 8.19 0 0 0-3-6.5 10.48 10.48 0 0 0-7.59-2.61 33.4 33.4 0 0 0-13.06 3.81 5.2 5.2 0 0 0-2.21 2.31 3.24 3.24 0 0 0-.27 2.31s1-2.61 9.49-5.41M56 40.86l.29.75c-1.61.75-3.45 1.52-5.5 2.31l-.57.22c.09-.51.18-1.14.26-1.87s.14-1.11.2-1.56a11 11 0 0 0 .13-1.54c0-.89-.42-1.34-1.27-1.34a9.43 9.43 0 0 0-4.88 1.82q-3.78 2.45-3.78 5.66a1.46 1.46 0 0 0 1 1.52 15 15 0 0 0 4.27.37h.29c0-.47.06-.79.06-1A9.4 9.4 0 0 0 46 43c1.46.35 2.2 1.65 2.2 3.87v.38l3.45-.07a11.5 11.5 0 0 1 3.39.35 4.64 4.64 0 0 1 3.27 4.8 14.68 14.68 0 0 1-3.65 9.36A13.22 13.22 0 0 1 44 67a7.8 7.8 0 0 1-7-3.72 21.33 21.33 0 0 1-11.51 3.42A17.4 17.4 0 0 1 17 64.59q-7.5-4.12-7.5-14.12a15.67 15.67 0 0 1 3.37-10.38 10.68 10.68 0 0 1 8.59-4 12.73 12.73 0 0 1 8.76 3.27 13.85 13.85 0 0 1 3.29 4.41 55 55 0 0 1 2.86 8.33l1.1 4a39 39 0 0 0 1.63 4.85 14.26 14.26 0 0 0 4.36-4.7 17.6 17.6 0 0 0 2.7-6.29h-1a15.5 15.5 0 0 1-5.18-.6 2.14 2.14 0 0 1-1.51-2.1q0-2.43 2.66-5.52a15.7 15.7 0 0 1 5-3.91 28.4 28.4 0 0 1 7.5-2.21l.74-.13-.06.35c-.15.66-.27 1.25-.35 1.76l-.35 2.07a10 10 0 0 0-.16 1.28c0 .42.18.63.53.63a2.2 2.2 0 0 0 .77-.15ZM36.66 62.48a29 29 0 0 1-1.56-4.18l-1.76-6.46q-2.09-7.73-5-11.21A9.26 9.26 0 0 0 21 37.15a8.86 8.86 0 0 0-7.18 3.08q-2.58 3.08-2.58 8.53a17 17 0 0 0 1 5.74 16.5 16.5 0 0 0 2.83 5 15.86 15.86 0 0 0 12.12 5.68 19 19 0 0 0 9.47-2.7m11.13-12.64a18.8 18.8 0 0 1-3.1 6.44 22.4 22.4 0 0 1-5.28 5.43A8.1 8.1 0 0 0 41.79 65a5.6 5.6 0 0 0 3.38.94 10 10 0 0 0 7.51-3.5 11.4 11.4 0 0 0 3.27-8c0-1.7-.47-2.88-1.42-3.53s-2.64-1-5.09-1h-1.1Z"/></svg>