<svg xmlns="http://www.w3.org/2000/svg" id="Capa_1" data-name="Capa 1" viewBox="0 0 114.96 115.34"><circle cx="57.48" cy="57.67" r="56.86" style="fill:#1d1d1b"/><path d="M30.85 80.63a4.1 4.1 0 0 1-1.56-.28 4.4 4.4 0 0 1-1.36-.86l.5-.59a4.4 4.4 0 0 0 1.14.76 3.4 3.4 0 0 0 1.31.25 1.8 1.8 0 0 0 1.12-.35 1 1 0 0 0 .43-.87 1 1 0 0 0-.08-.44.86.86 0 0 0-.28-.36 2.2 2.2 0 0 0-.57-.3 7 7 0 0 0-.93-.25 8 8 0 0 1-1.02-.34 2.9 2.9 0 0 1-.76-.42 1.6 1.6 0 0 1-.44-.57 2 2 0 0 1-.14-.77 1.8 1.8 0 0 1 .17-.77 2 2 0 0 1 .49-.62 2.5 2.5 0 0 1 .75-.41 2.8 2.8 0 0 1 .94-.15 4 4 0 0 1 1.37.22 4.4 4.4 0 0 1 1.14.66l-.47.62a3.8 3.8 0 0 0-1-.59 3.1 3.1 0 0 0-1.06-.2 1.76 1.76 0 0 0-1.12.33 1 1 0 0 0-.4.82 1.1 1.1 0 0 0 .08.46.87.87 0 0 0 .29.36 2 2 0 0 0 .59.31 8 8 0 0 0 1 .26 4.2 4.2 0 0 1 1.76.73 1.6 1.6 0 0 1 .57 1.29 1.9 1.9 0 0 1-.18.83 2 2 0 0 1-.5.64 2.3 2.3 0 0 1-.77.41 3.4 3.4 0 0 1-1.01.19m8.4-7.24h.8v7.14h-.8Zm7.15 0h.81v6.39h4v.75H46.4Zm10.6 0h5.16v.72h-4.38v2.46h3.89v.72h-3.89v2.51h4.4v.73H57Zm11.06 0h.75l4.5 5.72v-5.72h.79v7.14h-.65l-4.61-5.86v5.86h-.78ZM83 73.34h.75L87 80.53h-.87l-.84-1.89h-3.86l-.84 1.89h-.83Zm2 4.58-1.63-3.65-1.63 3.65Zm-55.27 13.7a1.9 1.9 0 0 1-1.1-.3 2.3 2.3 0 0 1-.71-.74l.47-.42a2.2 2.2 0 0 0 .58.63 1.34 1.34 0 0 0 .77.21 1.07 1.07 0 0 0 .83-.35 1.5 1.5 0 0 0 .33-1.06v-4h.66v3.94a2.8 2.8 0 0 1-.14.91 1.9 1.9 0 0 1-.39.64 1.78 1.78 0 0 1-1.3.54m9.66.02a3.1 3.1 0 0 1-1.23-.25 2.75 2.75 0 0 1-.94-.66 2.8 2.8 0 0 1-.61-1 3 3 0 0 1-.22-1.15 3.13 3.13 0 0 1 .83-2.13 3.1 3.1 0 0 1 1-.67 3 3 0 0 1 3.4.66 3.1 3.1 0 0 1 .61 1 3.3 3.3 0 0 1 .21 1.16 3.1 3.1 0 0 1-.22 1.16 3 3 0 0 1-.61 1 2.94 2.94 0 0 1-2.18.92Zm0-.62a2.3 2.3 0 0 0 .94-.19 2.1 2.1 0 0 0 .72-.52 2.5 2.5 0 0 0 .48-.76 2.7 2.7 0 0 0 .17-.94 2.7 2.7 0 0 0-.17-1 2.5 2.5 0 0 0-.49-.77 2.23 2.23 0 0 0-1.66-.71 2.2 2.2 0 0 0-.93.19 2 2 0 0 0-.73.51 2.48 2.48 0 0 0-.65 1.71 2.7 2.7 0 0 0 .17 1 2.5 2.5 0 0 0 .49.77 2.4 2.4 0 0 0 .73.52 2.2 2.2 0 0 0 .94.17Zm9.77-1.82-2.45-3.56h.81l2 3 2-3h.77l-2.45 3.55v2.34h-.66Zm7.69-3.56h4.26v.6h-3.59v2h3.21v.6h-3.21v2.07h3.63v.59h-4.3Zm9.15 0h2.54a3 3 0 0 1 1 .16 1.9 1.9 0 0 1 .7.43 1.5 1.5 0 0 1 .34.52 1.7 1.7 0 0 1 .11.64 1.7 1.7 0 0 1-.11.66 1.6 1.6 0 0 1-.34.51 1.7 1.7 0 0 1-.51.35 2.5 2.5 0 0 1-.63.2l1.81 2.4h-.82l-1.71-2.29h-1.71v2.29H66Zm2.48 3a2 2 0 0 0 .61-.09 1.4 1.4 0 0 0 .48-.24 1.3 1.3 0 0 0 .32-.37 1.2 1.2 0 0 0 .11-.51 1 1 0 0 0-.4-.86 1.8 1.8 0 0 0-1.11-.3h-1.82v2.39Zm7.18-3h.66v5.89h-.66Zm.86-1.74.68.31-1 .9h-.52Zm7.22 1.7h.62L87 91.53h-.71L85.64 90h-3.21l-.7 1.55h-.68Zm1.64 3.78-1.34-3-1.35 3Zm-4.16-45.62a24.4 24.4 0 0 1 7.13-1.55 8.33 8.33 0 0 1 5.5 1.8A5.65 5.65 0 0 1 96 48.57a7.9 7.9 0 0 1-.88 3.56 9.3 9.3 0 0 1-2.43 3A10.4 10.4 0 0 1 89.13 57a14.9 14.9 0 0 1-4.48.7q-7.4 0-12.69-7.23a36.5 36.5 0 0 1-3.75-6.65 35 35 0 0 1-2.38-7.15L65.1 33l-.43-2.2c0-.14-.07-.35-.12-.63a10 10 0 0 0 1.47.11h1.51a5.1 5.1 0 0 1 1.42.19 3.25 3.25 0 0 1 1.71 1.15 3 3 0 0 1 .65 1.91 3.7 3.7 0 0 1-.52 1.91 11 11 0 0 1-1.89 2.18 3.45 3.45 0 0 0-1.32 2.31 4.53 4.53 0 0 0 1 2.76 2.71 2.71 0 0 0 2 1.35 1.7 1.7 0 0 0 1.42-.62 2.25 2.25 0 0 0 .52-1.55v-.37c-.7 1-1.4 1.49-2.09 1.49a1.37 1.37 0 0 1-1.52-1.58c0-.64.53-1.44 1.59-2.41a5.47 5.47 0 0 0 2-4.13 6.35 6.35 0 0 0-6.28-6.27h-3.67l.09.57A68 68 0 0 0 65 39a40.7 40.7 0 0 0 3.7 7.75Q76.29 59.2 85.29 59.2a13.9 13.9 0 0 0 5.06-1 11.7 11.7 0 0 0 4.09-2.61 8.43 8.43 0 0 0 2.42-6.17A7.72 7.72 0 0 0 94 43.36a9.9 9.9 0 0 0-7.15-2.46 31.6 31.6 0 0 0-12.3 3.6 4.87 4.87 0 0 0-2.09 2.17 3.07 3.07 0 0 0-.23 2.19s.94-2.46 8.99-5.1m-19.3-9.89.27.7C60.67 35.28 59 36 57 36.75l-.54.21c.09-.49.17-1.07.25-1.76s.13-1.05.19-1.48a11 11 0 0 0 .1-1.45Q57 31 55.83 31a8.84 8.84 0 0 0-4.6 1.72q-3.55 2.3-3.56 5.33a1.38 1.38 0 0 0 .94 1.44 15 15 0 0 0 4 .34h.27c0-.44.06-.75.06-.91a8.8 8.8 0 0 0-.49-3.09c1.38.33 2.07 1.55 2.07 3.65v.35l3.25-.06a10.7 10.7 0 0 1 3.19.33 4.36 4.36 0 0 1 3.09 4.52 13.84 13.84 0 0 1-3.44 8.82 12.48 12.48 0 0 1-10 5A7.37 7.37 0 0 1 44 55a20.1 20.1 0 0 1-10.88 3.23 16.4 16.4 0 0 1-8-2q-7.07-3.9-7.06-13.3a14.74 14.74 0 0 1 3.17-9.78 10 10 0 0 1 8.1-3.82 12 12 0 0 1 8.25 3.09 13.1 13.1 0 0 1 3.11 4.15 54 54 0 0 1 2.69 7.85l1 3.73A36 36 0 0 0 46 52.73a13.6 13.6 0 0 0 4.11-4.44 16.4 16.4 0 0 0 2.54-5.92h-1a14.5 14.5 0 0 1-4.88-.57 2 2 0 0 1-1.42-2c0-1.52.83-3.26 2.5-5.2A14.8 14.8 0 0 1 52.6 31a26.3 26.3 0 0 1 7.07-2.08l.7-.13-.06.33c-.14.62-.25 1.18-.33 1.66l-.33 1.95a10 10 0 0 0-.15 1.2c0 .4.17.6.5.6a2.1 2.1 0 0 0 .72-.14ZM43.69 54.24a27.5 27.5 0 0 1-1.47-3.94l-1.66-6.09q-2-7.27-4.74-10.56a8.72 8.72 0 0 0-6.93-3.28 8.36 8.36 0 0 0-6.76 2.9q-2.44 2.9-2.44 8a15.9 15.9 0 0 0 1 5.41 15.4 15.4 0 0 0 2.66 4.74 14.94 14.94 0 0 0 11.42 5.35 18 18 0 0 0 8.92-2.53m10.49-11.92a18 18 0 0 1-2.93 6.08 21.1 21.1 0 0 1-5 5.11 7.65 7.65 0 0 0 2.24 3.06 5.3 5.3 0 0 0 3.19.88 9.48 9.48 0 0 0 7.08-3.29 10.77 10.77 0 0 0 3.07-7.57 3.75 3.75 0 0 0-1.33-3.32c-.89-.62-2.49-.92-4.8-.92h-1ZM16.51 65.38h81.93v.42H16.51z"/></svg>